<svg viewBox="0 0 100 100" xmlns="http://www.w3.org/2000/svg">
  <circle cx="50" cy="50" r="48" stroke="#c5a059" stroke-width="0.5" fill="none" opacity="0.3"/>
  <circle cx="50" cy="50" r="44" stroke="#c5a059" stroke-width="2" fill="#0f0a06"/>
  <circle cx="50" cy="50" r="40" stroke="#c5a059" stroke-width="1" stroke-dasharray="2 4" fill="none" opacity="0.5"/>
  <rect x="26" y="22" width="36" height="48" rx="3" stroke="#c5a059" stroke-width="1.5" fill="none"/>
  <line x1="32" y1="34" x2="56" y2="34" stroke="#c5a059" stroke-width="1"/>
  <line x1="32" y1="44" x2="56" y2="44" stroke="#c5a059" stroke-width="1"/>
  <line x1="32" y1="54" x2="50" y2="54" stroke="#c5a059" stroke-width="1"/>
  <path d="M66 24 Q70 38 66 52" stroke="#c5a059" stroke-width="1.5" fill="none"/>
  <path d="M66 52 L62 60 L68 58 Z" stroke="#c5a059" stroke-width="1" fill="none"/>
  <path d="M16 16 L24 16 L24 24" stroke="#c5a059" stroke-width="1" fill="none" opacity="0.4"/>
  <path d="M84 16 L76 16 L76 24" stroke="#c5a059" stroke-width="1" fill="none" opacity="0.4"/>
  <path d="M16 84 L24 84 L24 76" stroke="#c5a059" stroke-width="1" fill="none" opacity="0.4"/>
  <path d="M84 84 L76 84 L76 76" stroke="#c5a059" stroke-width="1" fill="none" opacity="0.4"/>
</svg>
