<svg viewBox="0 0 100 100" xmlns="http://www.w3.org/2000/svg">
  <circle cx="50" cy="50" r="48" stroke="#c5a059" stroke-width="0.5" fill="none" opacity="0.3"/>
  <circle cx="50" cy="50" r="44" stroke="#c5a059" stroke-width="2" fill="#0f0a06"/>
  <circle cx="50" cy="50" r="40" stroke="#c5a059" stroke-width="1" stroke-dasharray="2 4" fill="none" opacity="0.5"/>
  <path d="M50 18 L50 18 C66 24 74 32 74 48 C74 68 50 82 50 82 C50 82 26 68 26 48 C26 32 34 24 50 18 Z" stroke="#c5a059" stroke-width="2" fill="none"/>
  <line x1="50" y1="34" x2="50" y2="62" stroke="#c5a059" stroke-width="2.5" stroke-linecap="round"/>
  <line x1="36" y1="48" x2="64" y2="48" stroke="#c5a059" stroke-width="2.5" stroke-linecap="round"/>
  <path d="M16 16 L24 16 L24 24" stroke="#c5a059" stroke-width="1" fill="none" opacity="0.4"/>
  <path d="M84 16 L76 16 L76 24" stroke="#c5a059" stroke-width="1" fill="none" opacity="0.4"/>
  <path d="M16 84 L24 84 L24 76" stroke="#c5a059" stroke-width="1" fill="none" opacity="0.4"/>
  <path d="M84 84 L76 84 L76 76" stroke="#c5a059" stroke-width="1" fill="none" opacity="0.4"/>
</svg>
