<svg viewBox="0 0 100 100" xmlns="http://www.w3.org/2000/svg">
  <circle cx="50" cy="50" r="48" stroke="#c5a059" stroke-width="0.5" fill="none" opacity="0.3"/>
  <circle cx="50" cy="50" r="44" stroke="#c5a059" stroke-width="2" fill="#0f0a06"/>
  <circle cx="50" cy="50" r="40" stroke="#c5a059" stroke-width="1" stroke-dasharray="2 4" fill="none" opacity="0.5"/>
  <line x1="50" y1="20" x2="50" y2="60" stroke="#c5a059" stroke-width="2"/>
  <line x1="30" y1="60" x2="70" y2="60" stroke="#c5a059" stroke-width="2"/>
  <path d="M25 60 Q25 72 30 72 Q35 72 35 60" stroke="#c5a059" stroke-width="1.5" fill="none"/>
  <path d="M65 60 Q65 72 70 72 Q75 72 75 60" stroke="#c5a059" stroke-width="1.5" fill="none"/>
  <line x1="50" y1="20" x2="50" y2="14" stroke="#c5a059" stroke-width="3" stroke-linecap="round"/>
  <line x1="42" y1="18" x2="58" y2="18" stroke="#c5a059" stroke-width="2"/>
  <path d="M16 16 L24 16 L24 24" stroke="#c5a059" stroke-width="1" fill="none" opacity="0.4"/>
  <path d="M84 16 L76 16 L76 24" stroke="#c5a059" stroke-width="1" fill="none" opacity="0.4"/>
  <path d="M16 84 L24 84 L24 76" stroke="#c5a059" stroke-width="1" fill="none" opacity="0.4"/>
  <path d="M84 84 L76 84 L76 76" stroke="#c5a059" stroke-width="1" fill="none" opacity="0.4"/>
</svg>
